<svg xmlns="http://www.w3.org/2000/svg" viewBox="0 0 460 200" width="460" height="200"><defs></defs><g transform="matrix(1,0,0,1,55,-12)">
<g transform="matrix(1,0,0,1,-55,12)">
	<g>
		<path d="M324.46445351345363,144.4120232446237 C338.30141875197137,161.76249790212387 359.9996329538113,172.9492187481483 384.3688564354382,172.9492187481483 C426.100970179475,172.9492187481483 459.99999999975023,140.14269721939246 459.99999999975023,99.75553877815635 C459.99999999975023,59.36838034630334 426.100970179475,26.561858817547538 384.3688564354382,26.561858817547538 C358.2457101290763,26.561858817547538 335.19188955162195,39.41680862991261 321.60089648789295,58.93925819603519 C327.8379451140493,70.48330624963312 331.7237131929215,86.71959067906907 331.7237131929215,104.68796951690453 C331.7237131929215,119.71900779501277 329.0045388883396,133.53796483002688 324.46445351345363,144.4120232446237 ZM337.5159518061519,128.50013849930775 C337.5159518061519,128.50013849930775 337.5159518061519,124.10941552961347 337.5159518061519,124.10941552961347 C337.5159518061519,124.10941552961347 340.05404905277067,124.10941552961347 340.05404905277067,124.10941552961347 C340.82597643738546,124.10941552961347 341.5577636021289,124.00752111521963 342.2494105376178,123.80373228643198 C342.9472328944356,123.59376803631544 343.52463458225606,123.16766412413664 343.9816155916961,122.52542054051243 C344.444772022465,121.88317694750512 344.6763502472325,120.91981156737724 344.6763502472325,119.63532440012884 C344.6763502472325,119.63532440012884 344.6763502472325,82.41607356273812 344.6763502472325,82.41607356273812 C344.6763502472325,81.07600761291302 344.4200703465326,80.10029139951055 343.907510563899,79.48892490376443 C343.39495078126544,78.87138299607258 342.7897597068482,78.44836679455821 342.09193735003043,78.2198762898382 C341.40029041454153,77.98521036378932 340.7209943123272,77.86787740545643 340.05404905277067,77.86787740545643 C340.05404905277067,77.86787740545643 337.5159518061519,77.86787740545643 337.5159518061519,77.86787740545643 C337.5159518061519,77.86787740545643 337.5159518061519,73.47715442637904 337.5159518061519,73.47715442637904 C337.5159518061519,73.47715442637904 364.0270259532815,73.47715442637904 364.0270259532815,73.47715442637904 C369.523148946752,73.47715442637904 373.92622274972086,74.06690694747411 377.2362473809544,75.24641199904737 C380.5524474335168,76.42591704123751 382.92998378188366,78.10871874345106 384.3688564354382,80.29481710568803 C385.80772907960954,82.474740037213 386.52716540169524,85.08076689968301 386.52716540169524,88.11289766494873 C386.52716540169524,90.9906429626746 386.01151790839725,93.38053014431611 384.9802229218012,95.28255922863949 C383.955103356534,97.18458830357976 382.6212128280378,98.67595201966337 380.97855135507876,99.75665035812412 C379.33588987273663,100.83117327525599 377.5110535362578,101.65250402111863 375.50404233625926,102.22064257694578 C375.50404233625926,102.22064257694578 384.683802810613,117.47701543387177 384.683802810613,117.47701543387177 C386.0670966815908,119.79279758771624 387.2713033997133,121.4786870005942 388.29642297436357,122.5346836631226 C389.3277179609596,123.58450490432215 390.51031071381425,124.10941552961347 391.8442012423104,124.10941552961347 C391.8442012423104,124.10941552961347 392.39072582348655,124.10941552961347 392.39072582348655,124.10941552961347 C392.39072582348655,124.10941552961347 392.39072582348655,128.50013849930775 392.39072582348655,128.50013849930775 C392.39072582348655,128.50013849930775 389.22273583590135,128.50013849930775 389.22273583590135,128.50013849930775 C386.1967804825814,128.50013849930775 383.5660519535621,128.32105134645246 381.33055023946054,127.96287704074182 C379.09504852535883,127.60470273503118 377.18066861714397,126.9254066328169 375.5874104866665,125.92498874348206 C373.9941523655722,124.91839543281837 372.6818758023438,123.46408423532482 371.65058082513093,121.56205515100145 C371.65058082513093,121.56205515100145 363.1748181195407,104.7587398141814 363.1748181195407,104.7587398141814 C363.1748181195407,104.7587398141814 358.62662196225904,104.7587398141814 358.62662196225904,104.7587398141814 C358.62662196225904,104.7587398141814 358.62662196225904,119.63532440012884 358.62662196225904,119.63532440012884 C358.62662196225904,120.91981156737724 358.8057091151144,121.88317694750512 359.163883420825,122.52542054051243 C359.52823314786446,123.16766412413664 360.0438806411625,123.59376803631544 360.71082590071904,123.80373228643198 C361.37777116965873,124.00752111521963 362.0972074917444,124.10941552961347 362.8691348763593,124.10941552961347 C362.8691348763593,124.10941552961347 364.5642874212306,124.10941552961347 364.5642874212306,124.10941552961347 C364.5642874212306,124.10941552961347 364.5642874212306,128.50013849930775 364.5642874212306,128.50013849930775 C364.5642874212306,128.50013849930775 337.5159518061519,128.50013849930775 337.5159518061519,128.50013849930775 ZM362.4800834733874,99.98822857350856 C365.77158185001747,99.98822857350856 368.13676735572665,99.06500342263521 369.5756400092811,97.2185531115054 C371.0145126534525,95.36592738842982 371.73394897553817,92.5900765050978 371.73394897553817,88.89100047089242 C371.73394897553817,86.37142947887718 371.38503780182083,84.34280431361073 370.68721544500306,82.80512495632685 C369.995568500131,81.26127018709721 368.95501039092477,80.13116849677176 367.565541089235,79.4148198759674 C366.1822472182572,78.69229584321727 364.43769132152124,78.3310338268422 362.3318734177933,78.3310338268422 C362.3318734177933,78.3310338268422 358.62662196225904,78.3310338268422 358.62662196225904,78.3310338268422 C358.62662196225904,78.3310338268422 358.62662196225904,99.98822857350856 358.62662196225904,99.98822857350856 C358.62662196225904,99.98822857350856 362.4800834733874,99.98822857350856 362.4800834733874,99.98822857350856 ZM413.66071907622995,129.26897818264126 C409.8072575651016,129.26897818264126 406.63309215618756,128.93550554347988 404.1382228401047,128.2685602839233 C401.64952895473374,127.60161502436675 399.6980965185457,126.71544239208349 398.28392555030666,125.61004236830728 C396.8697545820676,124.50464235391418 395.89095065800075,123.3220496010596 395.3475137781059,122.06226410036042 C394.81025231015684,120.80247860904437 394.54162158556545,119.63532440012884 394.54162158556545,118.56080148299695 C394.54162158556545,116.45498356988591 394.97698862973755,114.83702377285921 395.84772271808174,113.70692208253377 C396.72463222775485,112.57682038282522 397.87017247140244,111.76784047962032 399.2843434396415,111.27998237291906 C400.6985144172636,110.78594884488896 402.2269306425542,110.53893208556548 403.8695921155133,110.53893208556548 C403.8695921155133,113.78102711033083 404.4068535740792,116.41793106067894 405.4813765005942,118.44964393660982 C406.56207483905496,120.47518140059495 407.96389497401935,121.96345739663103 409.6868368961043,122.91447194348426 C411.40977881818924,123.8654864809544 413.2222643213934,124.34099374499792 415.1242934057168,124.34099374499792 C418.00203869405954,124.34099374499792 420.22210186422217,123.54436468445074 421.78448288805527,121.9511065539733 C423.35303934260037,120.35784843287897 424.1373175604898,118.55771377233252 424.1373175604898,116.55070256295087 C424.1373175604898,114.85863773812714 423.6093192339172,113.41050196196247 422.5533225620057,112.20629524383997 C421.5035013208061,110.99591309500549 420.0028744821123,109.86581140468004 418.05144205530735,108.81599016348052 C416.1000096191193,107.75999349156899 413.7101224280946,106.66694431983365 410.8817804916166,105.53684262012507 C407.077722332353,103.99298785089543 404.110433462891,102.34723866727197 401.97991387384764,100.59959505987155 C399.8493942848042,98.85195146185426 398.3209780595136,96.93757154425626 397.3946651979758,94.85645530707755 C396.46835233643804,92.77533907928198 396.00519590566915,90.55527591850247 396.00519590566915,88.19626582473909 C396.00519590566915,85.00974957316728 396.89136854733556,82.26168807643204 398.66371382128517,79.95208134391645 C400.436059104618,77.63629918068888 402.8259462862595,75.84851535341706 405.83337538497597,74.588729862101 C408.8408044836924,73.32894437078494 412.2465481079909,72.69905162043536 416.0506062672546,72.69905162043536 C420.0028744821123,72.69905162043536 423.25114492820654,73.17455889386197 425.795417586771,74.12557343133211 C428.33969025471856,75.07658796880224 430.21392994306206,76.27153156431454 431.4181366705677,77.71040420848593 C432.62851881001905,79.14927686204041 433.2337098844363,80.64064056874092 433.2337098844363,82.18449533797055 C433.2337098844363,84.03094564910037 432.4617824904384,85.58406355032331 430.9179277212087,86.84384904163937 C429.38024837330795,88.10363454233854 426.7618706775633,88.73352728330502 423.06279464335796,88.73352728330502 C423.06279464335796,86.98588368528772 422.74167284685427,85.27838030714182 422.0994292632301,83.61101714886732 C421.45718567960586,81.93747857864706 420.50617114213577,80.53565844368265 419.2463856414366,79.4055567533572 C417.98660015012047,78.27545505364864 416.4056928623008,77.71040420848593 414.5036637873605,77.71040420848593 C412.39784587424947,77.71040420848593 410.65020227623216,78.23840254444167 409.2607329839255,79.29439920697008 C407.87743910356454,80.34422045755272 407.18579216807564,81.97453108785403 407.18579216807564,84.18533112602333 C407.18579216807564,85.36483616821347 407.5316156311286,86.53507808779344 408.22326257600054,87.6960568753801 C408.9149095114895,88.850860251021 410.2240983546702,90.0458038371502 412.15082911492595,91.28088765253392 C414.0775598657986,92.50979605597188 416.8657615824052,93.86838826040047 420.51543426474586,95.35666425643653 C424.263913650816,96.7955369006079 427.23120252966106,98.37644418842763 429.4173008825149,100.09938611051257 C431.60339924475187,101.82232804198064 433.1441663033171,103.68730460771395 434.03960206759365,105.69431580771248 C434.9412132625822,107.69515159576525 435.3920188506933,109.95226727513483 435.3920188506933,112.4656628458212 C435.3920188506933,115.80656456493284 434.5181970516847,118.73680092518784 432.77055344428425,121.25637191720307 C431.02290984626694,123.77594289983519 428.50333885425175,125.74281387996233 425.21184048700485,127.15698484820135 C421.92651753170367,128.56498040449463 418.0761437312397,129.26897818264126 413.66071907622995,129.26897818264126 Z" fill="#d47151"/>
	</g>
	<g>
		<path d="M23.025523098144674,128.50013850345462 C23.025523098144674,128.50013850345462 23.025523098144674,124.10941553167977 23.025523098144674,124.10941553167977 C23.025523098144674,124.10941553167977 25.72109353018366,124.10941553167977 25.72109353018366,124.10941553167977 Q26.95308963829769,124.10941553167977 27.95350753060082,123.76667977227963 Q28.953925422903946,123.41468088424705 29.565291912644746,122.37721047741418 Q30.185921531017982,121.33047694194887 30.185921531017982,119.25553612828313 Q30.185921531017982,82.4160735570837 30.185921531017982,82.4160735570837 Q30.185921531017982,80.40597464384501 29.565291912644746,79.48892490923382 Q28.953925422903946,78.56261204599018 27.990560045130565,78.21987628659002 Q27.027194667357183,77.86787739855745 26.026776775054056,77.86787739855745 Q23.025523098144674,77.86787739855745 23.025523098144674,77.86787739855745 C23.025523098144674,77.86787739855745 23.025523098144674,73.47715442678262 23.025523098144674,73.47715442678262 C23.025523098144674,73.47715442678262 48.14712794931209,73.47715442678262 48.14712794931209,73.47715442678262 Q59.707512482592676,73.47715442678262 65.17275837573013,77.63629918274654 Q70.64726739750002,81.79544393871046 70.64726739750002,89.89141836345985 Q70.64726739750002,93.66151171686144 69.34116626032649,96.90360673821418 Q68.03506512315296,100.13643863093446 65.18202150436257,102.5633783326328 Q62.32897788557216,104.99031803433112 57.697413569353984,106.30568230013708 Q53.075112381768236,107.6117834373106 46.451975409576235,107.6117834373106 Q44.13619325146715,107.6117834373106 44.13619325146715,107.6117834373106 C44.13619325146715,107.6117834373106 44.13619325146715,119.63532440221302 44.13619325146715,119.63532440221302 Q44.13619325146715,121.56205515775977 44.7105072266782,122.52542053553316 Q45.29408433052169,123.48878591330654 46.22039719376532,123.80373228680938 Q47.14671005700896,124.10941553167977 48.22123297837158,124.10941553167977 Q52.85279729458976,124.10941553167977 52.85279729458976,124.10941553167977 C52.85279729458976,124.10941553167977 52.85279729458976,128.50013850345462 52.85279729458976,128.50013850345462 C52.85279729458976,128.50013850345462 23.025523098144674,128.50013850345462 23.025523098144674,128.50013850345462 ZM45.75724076214351,102.83200906297344 Q48.45281119418249,102.83200906297344 50.37954194972926,102.14653754417316 Q52.306272705276015,101.45180289674043 53.575321327919795,99.914123543756 Q54.853633079196015,98.36718106213912 55.46499956893682,95.97729387497054 Q56.08562918731005,93.58740668780196 56.08562918731005,90.19710160833026 Q56.08562918731005,84.18533112587905 53.843952058260456,81.25818247802916 Q51.61153805784329,78.33103383017927 46.841026812138566,78.33103383017927 Q44.06208822240765,78.33103383017927 44.06208822240765,78.33103383017927 C44.06208822240765,78.33103383017927 44.06208822240765,102.83200906297344 44.06208822240765,102.83200906297344 C44.06208822240765,102.83200906297344 45.75724076214351,102.83200906297344 45.75724076214351,102.83200906297344 ZM93.31265961312675,128.50013850345462 C93.31265961312675,128.50013850345462 93.31265961312675,124.10941553167977 93.31265961312675,124.10941553167977 C93.31265961312675,124.10941553167977 96.85117475071745,124.10941553167977 96.85117475071745,124.10941553167977 Q97.9349608007125,124.10941553167977 98.74085299173446,123.57215407099847 Q99.55600831138887,123.02562948168472 100.00990161437824,122.0252115893816 Q100.47305804600006,121.02479369707847 100.47305804600006,119.63532440221302 Q100.47305804600006,82.25860037033229 100.47305804600006,82.25860037033229 Q100.47305804600006,80.63755285965593 99.93579658531876,79.72050312504473 Q99.39853512463745,78.79419026180108 98.47222226139381,78.33103383017927 Q97.54590939815017,77.86787739855745 96.31391329003614,77.86787739855745 Q93.31265961312675,77.86787739855745 93.31265961312675,77.86787739855745 C93.31265961312675,77.86787739855745 93.31265961312675,73.47715442678262 93.31265961312675,73.47715442678262 C93.31265961312675,73.47715442678262 119.50878738565679,73.47715442678262 119.50878738565679,73.47715442678262 Q128.2994964578389,73.47715442678262 134.6169501851605,76.36725056010276 Q140.9344039124821,79.2573466934229 144.28765647742406,85.03753896006319 Q147.64090904236602,90.81773122670349 147.64090904236602,99.59917717025316 Q147.64090904236602,108.00083483987294 144.44512966417548,114.54986678300546 Q141.24935028598495,121.09889872613796 135.00600158772284,124.80415017911251 Q128.76265288946072,128.50013850345462 119.50878738565679,128.50013850345462 Q93.31265961312675,128.50013850345462 93.31265961312675,128.50013850345462 ZM117.66542478780195,123.41468088424705 Q122.67677737795002,123.41468088424705 125.9837142997298,120.48753223639716 Q129.29991435014202,117.56038358854727 131.03211940440764,112.20629523899905 Q132.77358758730566,106.8429437608184 132.77358758730566,99.59917717025316 Q132.77358758730566,92.35541057968791 131.06917191893737,87.69605687757243 Q129.3740193792015,83.0274400468245 126.02076681425955,80.7579735318776 Q122.67677737795002,78.47924388829824 117.73952981686143,78.47924388829824 Q114.34922473738973,78.47924388829824 114.34922473738973,78.47924388829824 C114.34922473738973,78.47924388829824 114.34922473738973,123.41468088424705 114.34922473738973,123.41468088424705 C114.34922473738973,123.41468088424705 117.66542478780195,123.41468088424705 117.66542478780195,123.41468088424705 ZM173.69586456349194,128.50013850345462 C173.69586456349194,128.50013850345462 173.69586456349194,124.10941553167977 173.69586456349194,124.10941553167977 C173.69586456349194,124.10941553167977 175.92827856390912,124.10941553167977 175.92827856390912,124.10941553167977 Q177.46595791689356,124.10941553167977 178.54048083825617,123.68331161458771 Q179.6242668882512,123.25720769749563 180.23563337799203,122.25678980519251 Q180.85626299636525,121.25637191288938 180.85626299636525,119.63532440221302 Q180.85626299636525,82.33270539939178 180.85626299636525,82.33270539939178 Q180.85626299636525,80.72092101734785 180.2819490211542,79.75755563957446 Q179.70763504594314,78.79419026180108 178.81837469722925,78.33103383017927 Q177.92911434851536,77.86787739855745 176.92869645621224,77.86787739855745 Q173.69586456349194,77.86787739855745 173.69586456349194,77.86787739855745 C173.69586456349194,77.86787739855745 173.69586456349194,73.47715442678262 173.69586456349194,73.47715442678262 C173.69586456349194,73.47715442678262 197.74294649329676,73.47715442678262 197.74294649329676,73.47715442678262 C197.74294649329676,73.47715442678262 209.30333102657733,107.84336165312152 209.30333102657733,107.84336165312152 C209.30333102657733,107.84336165312152 220.08561275473326,73.47715442678262 220.08561275473326,73.47715442678262 C220.08561275473326,73.47715442678262 243.82701143966764,73.47715442678262 243.82701143966764,73.47715442678262 C243.82701143966764,73.47715442678262 243.82701143966764,77.86787739855745 243.82701143966764,77.86787739855745 C243.82701143966764,77.86787739855745 240.353338202504,77.86787739855745 240.353338202504,77.86787739855745 Q239.4362884678928,77.86787739855745 238.6211331482384,78.29398131564952 Q237.81524095721645,78.71082210410916 237.2687163679027,79.60008245282305 Q236.7314549072214,80.48934280153694 236.7314549072214,81.95291712546188 Q236.7314549072214,120.09848083383483 236.7314549072214,120.09848083383483 Q236.7314549072214,121.48795012870029 237.23166385337296,122.37721047741418 Q237.74113592815695,123.25720769749563 238.70450130593034,123.68331161458771 Q239.66786668370372,124.10941553167977 240.97396782087725,124.10941553167977 Q243.82701143966764,124.10941553167977 243.82701143966764,124.10941553167977 C243.82701143966764,124.10941553167977 243.82701143966764,128.50013850345462 243.82701143966764,128.50013850345462 C243.82701143966764,128.50013850345462 217.46414735175375,128.50013850345462 217.46414735175375,128.50013850345462 C217.46414735175375,128.50013850345462 217.46414735175375,124.10941553167977 217.46414735175375,124.10941553167977 C217.46414735175375,124.10941553167977 218.47382837268933,124.10941553167977 218.47382837268933,124.10941553167977 Q220.08561275473326,124.10941553167977 221.08603064703638,123.64625910005796 Q222.09571166797195,123.18310266843615 222.54960497096133,122.14563226160327 Q223.01276140258315,121.09889872613796 223.01276140258315,119.32964115734262 Q223.01276140258315,81.86954896776996 223.01276140258315,81.86954896776996 C223.01276140258315,81.86954896776996 208.3770181633337,128.50013850345462 208.3770181633337,128.50013850345462 C208.3770181633337,128.50013850345462 202.5968258966934,128.50013850345462 202.5968258966934,128.50013850345462 C202.5968258966934,128.50013850345462 187.0255066655679,81.79544393871046 187.0255066655679,81.79544393871046 C187.0255066655679,81.79544393871046 187.0255066655679,119.25553612828313 187.0255066655679,119.25553612828313 Q187.0255066655679,121.33047694194887 187.7202413130006,122.37721047741418 Q188.41497596043334,123.41468088424705 189.6840245830771,123.76667977227963 Q190.9530732057209,124.10941553167977 192.80569893220817,124.10941553167977 Q193.4263285505814,124.10941553167977 193.4263285505814,124.10941553167977 C193.4263285505814,124.10941553167977 193.4263285505814,128.50013850345462 193.4263285505814,128.50013850345462 C193.4263285505814,128.50013850345462 173.69586456349194,128.50013850345462 173.69586456349194,128.50013850345462 ZM267.4891126777349,128.50013850345462 C267.4891126777349,128.50013850345462 267.4891126777349,124.10941553167977 267.4891126777349,124.10941553167977 C267.4891126777349,124.10941553167977 270.8794177572066,124.10941553167977 270.8794177572066,124.10941553167977 Q272.1114138653207,124.10941553167977 272.9173060563426,123.60920658552821 Q273.73246137599705,123.10899763937665 274.18635467898645,122.21973729066276 Q274.6495111106083,121.33047694194887 274.6495111106083,120.02437580477535 Q274.6495111106083,82.33270539939178 274.6495111106083,82.33270539939178 Q274.6495111106083,80.33186961478552 274.1122496499269,79.40555675154188 Q273.57498818924563,78.47924388829824 272.68572784053174,78.17356064342785 Q271.8057306204503,77.86787739855745 270.7219445704552,77.86787739855745 Q267.4891126777349,77.86787739855745 267.4891126777349,77.86787739855745 C267.4891126777349,77.86787739855745 267.4891126777349,73.47715442678262 267.4891126777349,73.47715442678262 C267.4891126777349,73.47715442678262 311.87802508437,73.47715442678262 311.87802508437,73.47715442678262 C311.87802508437,73.47715442678262 312.1837083292404,87.96468760791308 312.1837083292404,87.96468760791308 C312.1837083292404,87.96468760791308 306.25530600448116,87.96468760791308 306.25530600448116,87.96468760791308 C306.25530600448116,87.96468760791308 305.8662546019188,84.18533112587905 305.8662546019188,84.18533112587905 Q305.7087814151674,82.1844953412728 305.1344674399563,80.95249923315876 Q304.56015346474527,79.71123999641229 303.4393149002205,79.09987350667149 Q302.31847633569566,78.47924388829824 300.3917455801489,78.47924388829824 Q288.5256778019979,78.47924388829824 288.5256778019979,78.47924388829824 C288.5256778019979,78.47924388829824 288.5256778019979,97.28339501214407 288.5256778019979,97.28339501214407 C288.5256778019979,97.28339501214407 306.79256746516245,97.28339501214407 306.79256746516245,97.28339501214407 C306.79256746516245,97.28339501214407 306.79256746516245,102.22064257323265 306.79256746516245,102.22064257323265 C306.79256746516245,102.22064257323265 288.5256778019979,102.22064257323265 288.5256778019979,102.22064257323265 C288.5256778019979,102.22064257323265 288.5256778019979,123.48878591330654 288.5256778019979,123.48878591330654 C288.5256778019979,123.48878591330654 302.5500545515066,123.48878591330654 302.5500545515066,123.48878591330654 Q304.40268027799385,123.48878591330654 305.5605713570484,122.75699875134407 Q306.7184624361029,122.0252115893816 307.4039339549032,120.75616296673782 Q308.098668602336,119.48711434409404 308.33024681814686,117.79196180435818 Q308.87677140746064,114.01260532232413 308.87677140746064,114.01260532232413 C308.87677140746064,114.01260532232413 314.8051737322199,114.01260532232413 314.8051737322199,114.01260532232413 C314.8051737322199,114.01260532232413 314.2679122715386,128.50013850345462 314.2679122715386,128.50013850345462 C314.2679122715386,128.50013850345462 267.4891126777349,128.50013850345462 267.4891126777349,128.50013850345462 Z" fill="#d47251"/>
	</g>
</g></g></svg>