<svg xmlns="http://www.w3.org/2000/svg" viewBox="0 0 431 156" width="431" height="156"><defs></defs><g transform="matrix(1,0,0,1,42.575559063,-30.051721333)">
<g transform="matrix(1,0,0,1,-55,12)">
	<g>
		<path d="M12.424441,129.322585C12.424441,129.322585 12.424441,124.640828 12.424441,124.640828 C12.424441,124.640828 15.299204,124.640828 15.299204,124.640828 Q16.613382,124.640828 17.681151,124.271215 Q18.74892,123.901603 19.406009,122.792765 Q20.063097,121.683928 20.063097,119.466254 Q20.063097,80.205202 20.063097,80.205202 Q20.063097,78.069663 19.406009,77.08403 Q18.74892,76.098397 17.722219,75.728785 Q16.695518,75.359172 15.627749,75.359172 Q12.424441,75.359172 12.424441,75.359172 C12.424441,75.359172 12.424441,70.677415 12.424441,70.677415 C12.424441,70.677415 39.200807,70.677415 39.200807,70.677415 Q51.521221,70.677415 57.352883,75.112764 Q63.184546,79.548113 63.184546,88.172403 Q63.184546,92.197071 61.788232,95.646787 Q60.391919,99.096503 57.352883,101.68379 Q54.313848,104.271077 49.385682,105.66739 Q44.457517,107.063704 37.393813,107.063704 Q34.92973,107.063704 34.92973,107.063704 C34.92973,107.063704 34.92973,119.876934 34.92973,119.876934 Q34.92973,121.930337 35.545751,122.957038 Q36.161771,123.983739 37.147405,124.312283 Q38.133038,124.640828 39.282943,124.640828 Q44.211108,124.640828 44.211108,124.640828 C44.211108,124.640828 44.211108,129.322585 44.211108,129.322585 C44.211108,129.322585 12.424441,129.322585 12.424441,129.322585 C12.424441,129.322585 12.424441,129.322585 12.424441,129.322585 ZM36.654588,101.971266Q39.529351,101.971266 41.582754,101.232041 Q43.636156,100.492817 44.991401,98.850095 Q46.346647,97.207373 47.003736,94.661154 Q47.660824,92.114935 47.660824,88.500947 Q47.660824,82.094332 45.278878,78.97316 Q42.896931,75.851989 37.804493,75.851989 Q34.847594,75.851989 34.847594,75.851989 C34.847594,75.851989 34.847594,101.971266 34.847594,101.971266 C34.847594,101.971266 36.654588,101.971266 36.654588,101.971266 C36.654588,101.971266 36.654588,101.971266 36.654588,101.971266 ZM79.841745,129.322585C79.841745,129.322585 79.841745,124.640828 79.841745,124.640828 C79.841745,124.640828 83.620005,124.640828 83.620005,124.640828 Q84.769911,124.640828 85.63234,124.065875 Q86.494769,123.490922 86.987585,122.423153 Q87.480402,121.355384 87.480402,119.876934 Q87.480402,80.04093 87.480402,80.04093 Q87.480402,78.316072 86.905449,77.330439 Q86.330496,76.344806 85.344863,75.851989 Q84.35923,75.359172 83.045053,75.359172 Q79.841745,75.359172 79.841745,75.359172 C79.841745,75.359172 79.841745,70.677415 79.841745,70.677415 C79.841745,70.677415 107.768016,70.677415 107.768016,70.677415 Q117.131531,70.677415 123.86669,73.757519 Q130.60185,76.837622 134.17477,82.997829 Q137.74769,89.158036 137.74769,98.52155 Q137.74769,107.474384 134.339042,114.455952 Q130.930394,121.43752 124.277371,125.380052 Q117.624347,129.322585 107.768016,129.322585 Q79.841745,129.322585 79.841745,129.322585 C79.841745,129.322585 79.841745,129.322585 79.841745,129.322585 ZM105.79675,123.901603Q111.135596,123.901603 114.667448,120.780431 Q118.1993,117.65926 120.047362,111.950801 Q121.895424,106.242343 121.895424,98.52155 Q121.895424,90.800758 120.08843,85.831524 Q118.281436,80.862291 114.708516,78.439276 Q111.135596,76.016261 105.878886,76.016261 Q102.264898,76.016261 102.264898,76.016261 C102.264898,76.016261 102.264898,123.901603 102.264898,123.901603 C102.264898,123.901603 105.79675,123.901603 105.79675,123.901603 C105.79675,123.901603 105.79675,123.901603 105.79675,123.901603 ZM156.942894,129.322585C156.942894,129.322585 156.942894,124.640828 156.942894,124.640828 C156.942894,124.640828 159.324841,124.640828 159.324841,124.640828 Q160.967563,124.640828 162.117468,124.189079 Q163.267374,123.737331 163.924462,122.669561 Q164.581551,121.601792 164.581551,119.876934 Q164.581551,80.123066 164.581551,80.123066 Q164.581551,78.398208 163.96553,77.371507 Q163.34951,76.344806 162.404945,75.851989 Q161.46038,75.359172 160.39261,75.359172 Q156.942894,75.359172 156.942894,75.359172 C156.942894,75.359172 156.942894,70.677415 156.942894,70.677415 C156.942894,70.677415 182.569355,70.677415 182.569355,70.677415 C182.569355,70.677415 194.889769,107.310112 194.889769,107.310112 C194.889769,107.310112 206.388822,70.677415 206.388822,70.677415 C206.388822,70.677415 231.686738,70.677415 231.686738,70.677415 C231.686738,70.677415 231.686738,75.359172 231.686738,75.359172 C231.686738,75.359172 227.990614,75.359172 227.990614,75.359172 Q227.004981,75.359172 226.142552,75.810921 Q225.280123,76.262669 224.70517,77.207235 Q224.130218,78.1518 224.130218,79.712385 Q224.130218,120.369751 224.130218,120.369751 Q224.130218,121.8482 224.664102,122.792765 Q225.197987,123.737331 226.224688,124.189079 Q227.251389,124.640828 228.647703,124.640828 Q231.686738,124.640828 231.686738,124.640828 C231.686738,124.640828 231.686738,129.322585 231.686738,129.322585 C231.686738,129.322585 203.596195,129.322585 203.596195,129.322585 C203.596195,129.322585 203.596195,124.640828 203.596195,124.640828 C203.596195,124.640828 204.663964,124.640828 204.663964,124.640828 Q206.388822,124.640828 207.456591,124.148011 Q208.52436,123.655194 209.017177,122.546357 Q209.509993,121.43752 209.509993,119.54839 Q209.509993,79.630249 209.509993,79.630249 C209.509993,79.630249 193.904136,129.322585 193.904136,129.322585 C193.904136,129.322585 187.743929,129.322585 187.743929,129.322585 C187.743929,129.322585 171.152438,79.548113 171.152438,79.548113 C171.152438,79.548113 171.152438,119.466254 171.152438,119.466254 Q171.152438,121.683928 171.891663,122.792765 Q172.630888,123.901603 173.986134,124.271215 Q175.341379,124.640828 177.312645,124.640828 Q177.969734,124.640828 177.969734,124.640828 C177.969734,124.640828 177.969734,129.322585 177.969734,129.322585 C177.969734,129.322585 156.942894,129.322585 156.942894,129.322585 C156.942894,129.322585 156.942894,129.322585 156.942894,129.322585 ZM246.906556,129.322585C246.906556,129.322585 246.906556,124.640828 246.906556,124.640828 C246.906556,124.640828 250.520544,124.640828 250.520544,124.640828 Q251.834721,124.640828 252.69715,124.106943 Q253.559579,123.573058 254.052396,122.628493 Q254.545212,121.683928 254.545212,120.287615 Q254.545212,80.123066 254.545212,80.123066 Q254.545212,77.987527 253.97026,77.001894 Q253.395307,76.016261 252.450742,75.687717 Q251.506177,75.359172 250.356272,75.359172 Q246.906556,75.359172 246.906556,75.359172 C246.906556,75.359172 246.906556,70.677415 246.906556,70.677415 C246.906556,70.677415 294.216945,70.677415 294.216945,70.677415 C294.216945,70.677415 294.545489,86.119 294.545489,86.119 C294.545489,86.119 288.22101,86.119 288.22101,86.119 C288.22101,86.119 287.81033,82.094332 287.81033,82.094332 Q287.646057,79.958794 287.030037,78.644616 Q286.414016,77.330439 285.223043,76.67335 Q284.032069,76.016261 281.978667,76.016261 Q269.329709,76.016261 269.329709,76.016261 C269.329709,76.016261 269.329709,96.057468 269.329709,96.057468 C269.329709,96.057468 288.795963,96.057468 288.795963,96.057468 C288.795963,96.057468 288.795963,101.314177 288.795963,101.314177 C288.795963,101.314177 269.329709,101.314177 269.329709,101.314177 C269.329709,101.314177 269.329709,123.983739 269.329709,123.983739 C269.329709,123.983739 284.278478,123.983739 284.278478,123.983739 Q286.249744,123.983739 287.481785,123.203446 Q288.713827,122.423153 289.453051,121.067908 Q290.192276,119.712662 290.438684,117.905668 Q291.013637,113.881 291.013637,113.881 C291.013637,113.881 297.338116,113.881 297.338116,113.881 C297.338116,113.881 296.763164,129.322585 296.763164,129.322585 C296.763164,129.322585 246.906556,129.322585 246.906556,129.322585 C246.906556,129.322585 246.906556,129.322585 246.906556,129.322585 Z" fill="#ececec"/>
	</g>
	<g>
		<path d="M299.448333,143.649861C314.195,162.14103 337.319748,174.063214 363.291109,174.063214 C407.76687,174.063214 443.894568,139.099851 443.894568,96.057468 C443.894568,53.015084 407.76687,18.051721 363.291109,18.051721 C335.450515,18.051721 310.881037,31.751811 296.396514,52.55775 C303.043613,64.860753 307.184848,82.16448 307.184848,101.314177 C307.184848,117.333421 304.286904,132.060895 299.448333,143.649861 L 299.448333,143.649861 ZM311.13469,129.322585C311.13469,129.322585 311.13469,124.640828 311.13469,124.640828 C311.13469,124.640828 313.845181,124.640828 313.845181,124.640828 C314.666542,124.640828 315.446835,124.531313 316.18606,124.312283 C316.925285,124.093254 317.541306,123.641505 318.034122,122.957038 C318.526939,122.27257 318.773347,121.245869 318.773347,119.876934 C318.773347,119.876934 318.773347,80.205202 318.773347,80.205202 C318.773347,78.78151 318.49956,77.741119 317.951986,77.08403 C317.404412,76.426942 316.761013,75.975193 316.021788,75.728785 C315.282563,75.482377 314.557028,75.359172 313.845181,75.359172 C313.845181,75.359172 311.13469,75.359172 311.13469,75.359172 C311.13469,75.359172 311.13469,70.677415 311.13469,70.677415 C311.13469,70.677415 339.389506,70.677415 339.389506,70.677415 C345.248547,70.677415 349.943994,71.307125 353.475846,72.566545 C357.007698,73.825965 359.540227,75.61927 361.073434,77.946459 C362.606641,80.273649 363.373245,83.052586 363.373245,86.283273 C363.373245,89.349687 362.825671,91.895906 361.730523,93.921929 C360.635375,95.947953 359.211683,97.535917 357.459446,98.685823 C355.70721,99.835728 353.763322,100.711846 351.627784,101.314177 C351.627784,101.314177 361.401979,117.577124 361.401979,117.577124 C362.880428,120.041206 364.167227,121.834511 365.262375,122.957038 C366.357523,124.079564 367.616943,124.640828 369.040635,124.640828 C369.040635,124.640828 369.615588,124.640828 369.615588,124.640828 C369.615588,124.640828 369.615588,129.322585 369.615588,129.322585 C369.615588,129.322585 366.248008,129.322585 366.248008,129.322585 C363.017322,129.322585 360.211005,129.130934 357.829059,128.747632 C355.447112,128.36433 353.407399,127.638795 351.70992,126.571026 C350.01244,125.503257 348.616127,123.95636 347.520979,121.930337 C347.520979,121.930337 338.486009,104.024668 338.486009,104.024668 C338.486009,104.024668 333.63998,104.024668 333.63998,104.024668 C333.63998,104.024668 333.63998,119.876934 333.63998,119.876934 C333.63998,121.245869 333.83163,122.27257 334.214932,122.957038 C334.598234,123.641505 335.145808,124.093254 335.857654,124.312283 C336.5695,124.531313 337.336104,124.640828 338.157465,124.640828 C338.157465,124.640828 339.964459,124.640828 339.964459,124.640828 C339.964459,124.640828 339.964459,129.322585 339.964459,129.322585 C339.964459,129.322585 311.13469,129.322585 311.13469,129.322585 L 311.13469,129.322585 ZM337.746784,98.932231C341.251257,98.932231 343.770098,97.946598 345.303305,95.975332 C346.836512,94.004065 347.603115,91.047166 347.603115,87.104634 C347.603115,84.421521 347.233503,82.258604 346.494278,80.615882 C345.755053,78.97316 344.646216,77.768498 343.167766,77.001894 C341.689317,76.235291 339.827565,75.851989 337.582512,75.851989 C337.582512,75.851989 333.63998,75.851989 333.63998,75.851989 C333.63998,75.851989 333.63998,98.932231 333.63998,98.932231 C333.63998,98.932231 337.746784,98.932231 337.746784,98.932231 L 337.746784,98.932231 ZM392.285149,130.143946C388.178344,130.143946 384.797075,129.788023 382.141342,129.076176 C379.485608,128.36433 377.404827,127.419765 375.898999,126.242481 C374.39317,125.065197 373.35278,123.805777 372.777827,122.464221 C372.202875,121.122665 371.915398,119.876934 371.915398,118.727029 C371.915398,116.481976 372.380836,114.757118 373.311712,113.552455 C374.242588,112.347792 375.46094,111.485363 376.966768,110.965168 C378.472596,110.444973 380.101629,110.184875 381.853865,110.184875 C381.853865,113.634591 382.428818,116.440908 383.578723,118.603825 C384.728629,120.766742 386.220768,122.354706 388.05514,123.367718 C389.889513,124.38073 391.819711,124.887236 393.845735,124.887236 C396.912149,124.887236 399.280406,124.038496 400.950507,122.341017 C402.620607,120.643538 403.455658,118.727029 403.455658,116.591491 C403.455658,114.784497 402.894394,113.2376 401.771868,111.950801 C400.649341,110.664003 399.047687,109.45934 396.966906,108.336813 C394.886125,107.214287 392.339906,106.050692 389.32825,104.846029 C385.276203,103.203308 382.113963,101.451071 379.841531,99.58932 C377.569099,97.727568 375.940067,95.687855 374.954434,93.470181 C373.968801,91.252506 373.475984,88.884249 373.475984,86.365409 C373.475984,82.97045 374.420549,80.04093 376.309679,77.576847 C378.198809,75.112764 380.745028,73.209945 383.948336,71.868389 C387.151643,70.526832 390.779321,69.856054 394.831368,69.856054 C399.047687,69.856054 402.511092,70.36256 405.221584,71.375572 C407.932075,72.388584 409.930719,73.661693 411.217518,75.1949 C412.504317,76.728107 413.147716,78.316072 413.147716,79.958794 C413.147716,81.93006 412.326355,83.586471 410.683634,84.928027 C409.040912,86.269583 406.248285,86.940361 402.305752,86.940361 C402.305752,85.07861 401.963519,83.257927 401.279051,81.478311 C400.594584,79.698696 399.581572,78.206557 398.240016,77.001894 C396.89846,75.797232 395.21467,75.1949 393.188646,75.1949 C390.943593,75.1949 389.081841,75.756164 387.603392,76.87869 C386.124942,78.001217 385.385717,79.739764 385.385717,82.094332 C385.385717,83.353752 385.75533,84.599483 386.494555,85.831524 C387.233779,87.063566 388.630093,88.336675 390.683495,89.650852 C392.736898,90.96503 395.707486,92.416101 399.595261,94.004065 C403.592551,95.537272 406.754791,97.221062 409.08198,99.055435 C411.409169,100.889808 413.051891,102.874763 414.010145,105.010302 C414.9684,107.14584 415.447527,109.555165 415.447527,112.238278 C415.447527,115.797508 414.516651,118.91868 412.6549,121.601792 C410.793148,124.284904 408.110036,126.379375 404.605563,127.885203 C401.10109,129.391032 396.994285,130.143946 392.285149,130.143946 L 392.285149,130.143946 Z" fill="#d56d4a"/>
	</g>
</g></g></svg>