<svg xmlns="http://www.w3.org/2000/svg" viewBox="0 0 460 200" width="460" height="200"><defs></defs><g transform="matrix(1,0,0,1,55,-12)">
<g transform="matrix(1,0,0,1,-55,12)">
	<g>
		<path d="M324.4644535145539,144.41202324599095 C338.3014187553224,161.76249789638146 359.99963295647757,172.94921874999793 384.36885643210064,172.94921874999793 C426.1009701781207,172.94921874999793 459.9999999999947,140.1426972152401 459.9999999999947,99.75553878156823 C459.9999999999947,59.36838034789639 426.1009701781207,26.561858813138556 384.36885643210064,26.561858813138556 C358.24571012440816,26.561858813138556 335.19188954843605,39.41680862472901 321.6008964858336,58.93925819350767 C327.8379451133256,70.48330624923815 331.72371319538803,86.71959067572422 331.72371319538803,104.68796951461958 C331.72371319538803,119.71900779686509 329.004538892404,133.53796483362729 324.4644535145539,144.41202324599095 Z" fill="#d47151"/>
	</g>
	<g>
		<path d="M23.025523098144674,128.50013850345462 C23.025523098144674,128.50013850345462 23.025523098144674,124.10941553167977 23.025523098144674,124.10941553167977 C23.025523098144674,124.10941553167977 25.72109353018366,124.10941553167977 25.72109353018366,124.10941553167977 Q26.95308963829769,124.10941553167977 27.95350753060082,123.76667977227963 Q28.953925422903946,123.41468088424705 29.565291912644746,122.37721047741418 Q30.185921531017982,121.33047694194887 30.185921531017982,119.25553612828313 Q30.185921531017982,82.4160735570837 30.185921531017982,82.4160735570837 Q30.185921531017982,80.40597464384501 29.565291912644746,79.48892490923382 Q28.953925422903946,78.56261204599018 27.990560045130565,78.21987628659002 Q27.027194667357183,77.86787739855745 26.026776775054056,77.86787739855745 Q23.025523098144674,77.86787739855745 23.025523098144674,77.86787739855745 C23.025523098144674,77.86787739855745 23.025523098144674,73.47715442678262 23.025523098144674,73.47715442678262 C23.025523098144674,73.47715442678262 48.14712794931209,73.47715442678262 48.14712794931209,73.47715442678262 Q59.707512482592676,73.47715442678262 65.17275837573013,77.63629918274654 Q70.64726739750002,81.79544393871046 70.64726739750002,89.89141836345985 Q70.64726739750002,93.66151171686144 69.34116626032649,96.90360673821418 Q68.03506512315296,100.13643863093446 65.18202150436257,102.5633783326328 Q62.32897788557216,104.99031803433112 57.697413569353984,106.30568230013708 Q53.075112381768236,107.6117834373106 46.451975409576235,107.6117834373106 Q44.13619325146715,107.6117834373106 44.13619325146715,107.6117834373106 C44.13619325146715,107.6117834373106 44.13619325146715,119.63532440221302 44.13619325146715,119.63532440221302 Q44.13619325146715,121.56205515775977 44.7105072266782,122.52542053553316 Q45.29408433052169,123.48878591330654 46.22039719376532,123.80373228680938 Q47.14671005700896,124.10941553167977 48.22123297837158,124.10941553167977 Q52.85279729458976,124.10941553167977 52.85279729458976,124.10941553167977 C52.85279729458976,124.10941553167977 52.85279729458976,128.50013850345462 52.85279729458976,128.50013850345462 C52.85279729458976,128.50013850345462 23.025523098144674,128.50013850345462 23.025523098144674,128.50013850345462 ZM45.75724076214351,102.83200906297344 Q48.45281119418249,102.83200906297344 50.37954194972926,102.14653754417316 Q52.306272705276015,101.45180289674043 53.575321327919795,99.914123543756 Q54.853633079196015,98.36718106213912 55.46499956893682,95.97729387497054 Q56.08562918731005,93.58740668780196 56.08562918731005,90.19710160833026 Q56.08562918731005,84.18533112587905 53.843952058260456,81.25818247802916 Q51.61153805784329,78.33103383017927 46.841026812138566,78.33103383017927 Q44.06208822240765,78.33103383017927 44.06208822240765,78.33103383017927 C44.06208822240765,78.33103383017927 44.06208822240765,102.83200906297344 44.06208822240765,102.83200906297344 C44.06208822240765,102.83200906297344 45.75724076214351,102.83200906297344 45.75724076214351,102.83200906297344 ZM93.31265961312675,128.50013850345462 C93.31265961312675,128.50013850345462 93.31265961312675,124.10941553167977 93.31265961312675,124.10941553167977 C93.31265961312675,124.10941553167977 96.85117475071745,124.10941553167977 96.85117475071745,124.10941553167977 Q97.9349608007125,124.10941553167977 98.74085299173446,123.57215407099847 Q99.55600831138887,123.02562948168472 100.00990161437824,122.0252115893816 Q100.47305804600006,121.02479369707847 100.47305804600006,119.63532440221302 Q100.47305804600006,82.25860037033229 100.47305804600006,82.25860037033229 Q100.47305804600006,80.63755285965593 99.93579658531876,79.72050312504473 Q99.39853512463745,78.79419026180108 98.47222226139381,78.33103383017927 Q97.54590939815017,77.86787739855745 96.31391329003614,77.86787739855745 Q93.31265961312675,77.86787739855745 93.31265961312675,77.86787739855745 C93.31265961312675,77.86787739855745 93.31265961312675,73.47715442678262 93.31265961312675,73.47715442678262 C93.31265961312675,73.47715442678262 119.50878738565679,73.47715442678262 119.50878738565679,73.47715442678262 Q128.2994964578389,73.47715442678262 134.6169501851605,76.36725056010276 Q140.9344039124821,79.2573466934229 144.28765647742406,85.03753896006319 Q147.64090904236602,90.81773122670349 147.64090904236602,99.59917717025316 Q147.64090904236602,108.00083483987294 144.44512966417548,114.54986678300546 Q141.24935028598495,121.09889872613796 135.00600158772284,124.80415017911251 Q128.76265288946072,128.50013850345462 119.50878738565679,128.50013850345462 Q93.31265961312675,128.50013850345462 93.31265961312675,128.50013850345462 ZM117.66542478780195,123.41468088424705 Q122.67677737795002,123.41468088424705 125.9837142997298,120.48753223639716 Q129.29991435014202,117.56038358854727 131.03211940440764,112.20629523899905 Q132.77358758730566,106.8429437608184 132.77358758730566,99.59917717025316 Q132.77358758730566,92.35541057968791 131.06917191893737,87.69605687757243 Q129.3740193792015,83.0274400468245 126.02076681425955,80.7579735318776 Q122.67677737795002,78.47924388829824 117.73952981686143,78.47924388829824 Q114.34922473738973,78.47924388829824 114.34922473738973,78.47924388829824 C114.34922473738973,78.47924388829824 114.34922473738973,123.41468088424705 114.34922473738973,123.41468088424705 C114.34922473738973,123.41468088424705 117.66542478780195,123.41468088424705 117.66542478780195,123.41468088424705 ZM173.69586456349194,128.50013850345462 C173.69586456349194,128.50013850345462 173.69586456349194,124.10941553167977 173.69586456349194,124.10941553167977 C173.69586456349194,124.10941553167977 175.92827856390912,124.10941553167977 175.92827856390912,124.10941553167977 Q177.46595791689356,124.10941553167977 178.54048083825617,123.68331161458771 Q179.6242668882512,123.25720769749563 180.23563337799203,122.25678980519251 Q180.85626299636525,121.25637191288938 180.85626299636525,119.63532440221302 Q180.85626299636525,82.33270539939178 180.85626299636525,82.33270539939178 Q180.85626299636525,80.72092101734785 180.2819490211542,79.75755563957446 Q179.70763504594314,78.79419026180108 178.81837469722925,78.33103383017927 Q177.92911434851536,77.86787739855745 176.92869645621224,77.86787739855745 Q173.69586456349194,77.86787739855745 173.69586456349194,77.86787739855745 C173.69586456349194,77.86787739855745 173.69586456349194,73.47715442678262 173.69586456349194,73.47715442678262 C173.69586456349194,73.47715442678262 197.74294649329676,73.47715442678262 197.74294649329676,73.47715442678262 C197.74294649329676,73.47715442678262 209.30333102657733,107.84336165312152 209.30333102657733,107.84336165312152 C209.30333102657733,107.84336165312152 220.08561275473326,73.47715442678262 220.08561275473326,73.47715442678262 C220.08561275473326,73.47715442678262 243.82701143966764,73.47715442678262 243.82701143966764,73.47715442678262 C243.82701143966764,73.47715442678262 243.82701143966764,77.86787739855745 243.82701143966764,77.86787739855745 C243.82701143966764,77.86787739855745 240.353338202504,77.86787739855745 240.353338202504,77.86787739855745 Q239.4362884678928,77.86787739855745 238.6211331482384,78.29398131564952 Q237.81524095721645,78.71082210410916 237.2687163679027,79.60008245282305 Q236.7314549072214,80.48934280153694 236.7314549072214,81.95291712546188 Q236.7314549072214,120.09848083383483 236.7314549072214,120.09848083383483 Q236.7314549072214,121.48795012870029 237.23166385337296,122.37721047741418 Q237.74113592815695,123.25720769749563 238.70450130593034,123.68331161458771 Q239.66786668370372,124.10941553167977 240.97396782087725,124.10941553167977 Q243.82701143966764,124.10941553167977 243.82701143966764,124.10941553167977 C243.82701143966764,124.10941553167977 243.82701143966764,128.50013850345462 243.82701143966764,128.50013850345462 C243.82701143966764,128.50013850345462 217.46414735175375,128.50013850345462 217.46414735175375,128.50013850345462 C217.46414735175375,128.50013850345462 217.46414735175375,124.10941553167977 217.46414735175375,124.10941553167977 C217.46414735175375,124.10941553167977 218.47382837268933,124.10941553167977 218.47382837268933,124.10941553167977 Q220.08561275473326,124.10941553167977 221.08603064703638,123.64625910005796 Q222.09571166797195,123.18310266843615 222.54960497096133,122.14563226160327 Q223.01276140258315,121.09889872613796 223.01276140258315,119.32964115734262 Q223.01276140258315,81.86954896776996 223.01276140258315,81.86954896776996 C223.01276140258315,81.86954896776996 208.3770181633337,128.50013850345462 208.3770181633337,128.50013850345462 C208.3770181633337,128.50013850345462 202.5968258966934,128.50013850345462 202.5968258966934,128.50013850345462 C202.5968258966934,128.50013850345462 187.0255066655679,81.79544393871046 187.0255066655679,81.79544393871046 C187.0255066655679,81.79544393871046 187.0255066655679,119.25553612828313 187.0255066655679,119.25553612828313 Q187.0255066655679,121.33047694194887 187.7202413130006,122.37721047741418 Q188.41497596043334,123.41468088424705 189.6840245830771,123.76667977227963 Q190.9530732057209,124.10941553167977 192.80569893220817,124.10941553167977 Q193.4263285505814,124.10941553167977 193.4263285505814,124.10941553167977 C193.4263285505814,124.10941553167977 193.4263285505814,128.50013850345462 193.4263285505814,128.50013850345462 C193.4263285505814,128.50013850345462 173.69586456349194,128.50013850345462 173.69586456349194,128.50013850345462 ZM267.4891126777349,128.50013850345462 C267.4891126777349,128.50013850345462 267.4891126777349,124.10941553167977 267.4891126777349,124.10941553167977 C267.4891126777349,124.10941553167977 270.8794177572066,124.10941553167977 270.8794177572066,124.10941553167977 Q272.1114138653207,124.10941553167977 272.9173060563426,123.60920658552821 Q273.73246137599705,123.10899763937665 274.18635467898645,122.21973729066276 Q274.6495111106083,121.33047694194887 274.6495111106083,120.02437580477535 Q274.6495111106083,82.33270539939178 274.6495111106083,82.33270539939178 Q274.6495111106083,80.33186961478552 274.1122496499269,79.40555675154188 Q273.57498818924563,78.47924388829824 272.68572784053174,78.17356064342785 Q271.8057306204503,77.86787739855745 270.7219445704552,77.86787739855745 Q267.4891126777349,77.86787739855745 267.4891126777349,77.86787739855745 C267.4891126777349,77.86787739855745 267.4891126777349,73.47715442678262 267.4891126777349,73.47715442678262 C267.4891126777349,73.47715442678262 311.87802508437,73.47715442678262 311.87802508437,73.47715442678262 C311.87802508437,73.47715442678262 312.1837083292404,87.96468760791308 312.1837083292404,87.96468760791308 C312.1837083292404,87.96468760791308 306.25530600448116,87.96468760791308 306.25530600448116,87.96468760791308 C306.25530600448116,87.96468760791308 305.8662546019188,84.18533112587905 305.8662546019188,84.18533112587905 Q305.7087814151674,82.1844953412728 305.1344674399563,80.95249923315876 Q304.56015346474527,79.71123999641229 303.4393149002205,79.09987350667149 Q302.31847633569566,78.47924388829824 300.3917455801489,78.47924388829824 Q288.5256778019979,78.47924388829824 288.5256778019979,78.47924388829824 C288.5256778019979,78.47924388829824 288.5256778019979,97.28339501214407 288.5256778019979,97.28339501214407 C288.5256778019979,97.28339501214407 306.79256746516245,97.28339501214407 306.79256746516245,97.28339501214407 C306.79256746516245,97.28339501214407 306.79256746516245,102.22064257323265 306.79256746516245,102.22064257323265 C306.79256746516245,102.22064257323265 288.5256778019979,102.22064257323265 288.5256778019979,102.22064257323265 C288.5256778019979,102.22064257323265 288.5256778019979,123.48878591330654 288.5256778019979,123.48878591330654 C288.5256778019979,123.48878591330654 302.5500545515066,123.48878591330654 302.5500545515066,123.48878591330654 Q304.40268027799385,123.48878591330654 305.5605713570484,122.75699875134407 Q306.7184624361029,122.0252115893816 307.4039339549032,120.75616296673782 Q308.098668602336,119.48711434409404 308.33024681814686,117.79196180435818 Q308.87677140746064,114.01260532232413 308.87677140746064,114.01260532232413 C308.87677140746064,114.01260532232413 314.8051737322199,114.01260532232413 314.8051737322199,114.01260532232413 C314.8051737322199,114.01260532232413 314.2679122715386,128.50013850345462 314.2679122715386,128.50013850345462 C314.2679122715386,128.50013850345462 267.4891126777349,128.50013850345462 267.4891126777349,128.50013850345462 Z" fill="#0e0e0e"/>
	</g>
	<g>
		<path d="M337.5159518092355,128.5001385034529 C337.5159518092355,128.5001385034529 337.5159518092355,124.10941553167814 337.5159518092355,124.10941553167814 C337.5159518092355,124.10941553167814 340.05404905452303,124.10941553167814 340.05404905452303,124.10941553167814 Q341.21194013357757,124.10941553167814 342.2494105404104,123.80373228680774 Q343.2961440758757,123.48878591330492 343.981615594676,122.52542053553155 Q344.6763502421087,121.56205515775818 344.6763502421087,119.63532440221145 Q344.6763502421087,82.41607355708277 344.6763502421087,82.41607355708277 Q344.6763502421087,80.4059746438441 343.90751056561646,79.48892490923292 Q343.1386708891243,78.5626120459893 342.091937353659,78.21987628658916 Q341.05446694682615,77.86787739855659 340.05404905452303,77.86787739855659 Q337.5159518092355,77.86787739855659 337.5159518092355,77.86787739855659 C337.5159518092355,77.86787739855659 337.5159518092355,73.47715442678182 337.5159518092355,73.47715442678182 C337.5159518092355,73.47715442678182 364.0270259552679,73.47715442678182 364.0270259552679,73.47715442678182 Q372.27121043813617,73.47715442678182 377.23624738512194,75.24641199557713 Q382.2105474607402,77.01566956437244 384.36885643209786,80.29481710025487 Q386.52716540345546,83.56470150750485 386.52716540345546,88.11289766603103 Q386.52716540345546,92.4295156087463 384.9802229218386,95.28255922753667 Q383.4425435688542,98.135602846327 380.9785513526262,99.75665035700334 Q378.51455913639813,101.36843473904725 375.5040423308564,102.22064257323137 Q384.6838028056007,117.47701543085381 384.6838028056007,117.47701543085381 Q386.7587436192664,120.95068866801739 388.2964229722508,122.53468366416399 Q389.84336545386765,124.10941553167814 391.84420123847383,124.10941553167814 Q392.3907258277876,124.10941553167814 392.3907258277876,124.10941553167814 C392.3907258277876,124.10941553167814 392.3907258277876,128.5001385034529 392.3907258277876,128.5001385034529 C392.3907258277876,128.5001385034529 389.2227358354944,128.5001385034529 389.2227358354944,128.5001385034529 Q384.6838028056007,128.5001385034529 381.33055024065874,127.96287704277161 Q377.97729767571684,127.4256155820903 375.5874104885483,125.92498874363564 Q373.19752330137976,124.41509877654853 371.6505808197629,121.56205515775818 Q363.1748181210838,104.7587398185189 363.1748181210838,104.7587398185189 C363.1748181210838,104.7587398185189 358.62662196255764,104.7587398185189 358.62662196255764,104.7587398185189 C358.62662196255764,104.7587398185189 358.62662196255764,119.63532440221145 358.62662196255764,119.63532440221145 Q358.62662196255764,121.56205515775818 359.16388342323893,122.52542053553155 Q359.71040801255265,123.48878591330492 360.71082590485577,123.80373228680774 Q361.7112437971589,124.10941553167814 362.8691348762134,124.10941553167814 Q364.56428741594925,124.10941553167814 364.56428741594925,124.10941553167814 C364.56428741594925,124.10941553167814 364.56428741594925,128.5001385034529 364.56428741594925,128.5001385034529 C364.56428741594925,128.5001385034529 337.5159518092355,128.5001385034529 337.5159518092355,128.5001385034529 ZM362.48008347365106,99.98822857281425 Q367.41733103473956,99.98822857281425 369.5756400060972,97.21855311171583 Q371.7339489774549,94.43961452198496 371.7339489774549,88.89100047115568 Q371.7339489774549,85.11164398912169 370.68721544198957,82.80512495964508 Q369.6497450351567,80.48934280153603 367.56554109285855,79.41481988017343 Q365.49060027919285,78.3310338301784 362.3318734155321,78.3310338301784 Q358.62662196255764,78.3310338301784 358.62662196255764,78.3310338301784 C358.62662196255764,78.3310338301784 358.62662196255764,99.98822857281425 358.62662196255764,99.98822857281425 C358.62662196255764,99.98822857281425 362.48008347365106,99.98822857281425 362.48008347365106,99.98822857281425 ZM413.6607190797804,129.26897817994512 Q407.8805268131402,129.26897817994512 404.138222845636,128.268560287642 Q400.4051820067642,127.26814239533888 398.28392554993627,125.6100423701328 Q396.16266909310843,123.95194234492672 395.347513773454,122.06226410390974 Q394.5416215824321,120.17258586289276 394.5416215824321,118.56080148084885 Q394.5416215824321,115.4020746171881 395.8477227196056,113.70692207745228 Q397.1630869854115,112.01176953771645 399.2843434422394,111.27998237575399 Q401.4055998990673,110.5389320851591 403.86959211529535,110.5389320851591 Q403.86959211529535,115.4020746171881 405.4813764973392,118.44964393725962 Q407.10242400801553,121.4879501286987 409.68683689646525,122.91447193809387 Q412.27124978491497,124.34099374748905 415.12429340370534,124.34099374748905 Q419.4409113464206,124.34099374748905 421.78448289042694,121.95110656032051 Q424.1373175630657,119.56121937315196 424.1373175630657,116.5507025676102 Q424.1373175630657,114.01260532232267 422.5533225669192,112.20629523899761 Q420.978590699405,110.39072202704011 418.05144205155517,108.81599015952597 Q415.12429340370534,107.23199516337937 410.88178049004955,105.53684262364354 Q405.1756932524688,103.22106046553449 401.97991387427834,100.59959506255504 Q398.78413449608786,97.97812965957559 397.39466520122244,94.8564553104446 Q396.005195906357,91.73478096131359 396.005195906357,88.19626582372295 Q396.005195906357,83.41649144938587 398.6637138238662,79.95208134085473 Q401.3222317413754,76.47840810369115 405.8333753853718,74.58872986267417 Q410.34451902936826,72.69905162165718 416.05060626694893,72.69905162165718 Q421.9790085917081,72.69905162165718 425.79541758827185,74.12557343105235 Q429.61182658483557,75.55209524044753 431.4181366681606,77.71040421180517 Q433.2337098801181,79.86871318316281 433.2337098801181,82.18449534127186 Q433.2337098801181,84.95417080237029 430.91792772200904,86.84384904338728 Q428.61140869253245,88.73352728440426 423.06279464170314,88.73352728440426 Q423.06279464170314,86.11206188142481 422.0994292639298,83.61101715066704 Q421.1360638861564,81.10070929127681 419.2463856451394,79.40555675154098 Q417.35670740412246,77.71040421180517 414.5036637853321,77.71040421180517 Q411.3449369216713,77.71040421180517 409.2607329793732,79.29439920795176 Q407.1857921657075,80.86913107546592 407.1857921657075,84.18533112587808 Q407.1857921657075,85.95458869467339 408.22326257254036,87.69605687757141 Q409.2607329793732,89.42826193183697 412.1508291126933,91.28088765832422 Q415.0409252460134,93.12425025617901 420.5154342677832,95.35666425659615 Q426.13815334767196,97.51497322795379 429.4173008835544,100.09938611640348 Q432.6964484194368,102.6837990048532 434.03960207114005,105.69431581039495 Q435.39201885147577,108.69556948730428 435.39201885147577,112.46566284070582 Q435.39201885147577,117.47701543085381 432.7705534484963,121.25637191288779 Q430.14908804551686,125.03572839492176 425.21184048442836,127.15698485174966 Q420.2838560519723,129.26897817994512 413.6607190797804,129.26897817994512 Q413.6607190797804,129.26897817994512 413.6607190797804,129.26897817994512 Z" fill="#ffffff"/>
	</g>
</g></g></svg>