<svg xmlns="http://www.w3.org/2000/svg" viewBox="0 0 431 156" width="431" height="156"><defs></defs><g transform="matrix(1,0,0,1,42.575559063,-30.051721335)">
<g transform="matrix(1,0,0,1,-55,12)">
	<g>
		<path d="M299.448333,143.649861C314.195,162.14103 337.319748,174.063214 363.291109,174.063214 C407.76687,174.063214 443.894568,139.099851 443.894568,96.057468 C443.894568,53.015084 407.76687,18.051721 363.291109,18.051721 C335.450515,18.051721 310.881037,31.751811 296.396514,52.55775 C303.043613,64.860753 307.184848,82.16448 307.184848,101.314177 C307.184848,117.333421 304.286904,132.060895 299.448333,143.649861 L 299.448333,143.649861 Z" fill="#d47151"/>
	</g>
	<g>
		<path d="M12.424441,129.322585C12.424441,129.322585 12.424441,124.640828 12.424441,124.640828 C12.424441,124.640828 15.299204,124.640828 15.299204,124.640828 Q16.613382,124.640828 17.681151,124.271215 Q18.74892,123.901603 19.406009,122.792765 Q20.063097,121.683928 20.063097,119.466254 Q20.063097,80.205202 20.063097,80.205202 Q20.063097,78.069663 19.406009,77.08403 Q18.74892,76.098397 17.722219,75.728785 Q16.695518,75.359172 15.627749,75.359172 Q12.424441,75.359172 12.424441,75.359172 C12.424441,75.359172 12.424441,70.677415 12.424441,70.677415 C12.424441,70.677415 39.200807,70.677415 39.200807,70.677415 Q51.521221,70.677415 57.352883,75.112764 Q63.184546,79.548113 63.184546,88.172403 Q63.184546,92.197071 61.788232,95.646787 Q60.391919,99.096503 57.352883,101.68379 Q54.313848,104.271077 49.385682,105.66739 Q44.457517,107.063704 37.393813,107.063704 Q34.92973,107.063704 34.92973,107.063704 C34.92973,107.063704 34.92973,119.876934 34.92973,119.876934 Q34.92973,121.930337 35.545751,122.957038 Q36.161771,123.983739 37.147405,124.312283 Q38.133038,124.640828 39.282943,124.640828 Q44.211108,124.640828 44.211108,124.640828 C44.211108,124.640828 44.211108,129.322585 44.211108,129.322585 C44.211108,129.322585 12.424441,129.322585 12.424441,129.322585 C12.424441,129.322585 12.424441,129.322585 12.424441,129.322585 ZM36.654588,101.971266Q39.529351,101.971266 41.582754,101.232041 Q43.636156,100.492817 44.991401,98.850095 Q46.346647,97.207373 47.003736,94.661154 Q47.660824,92.114935 47.660824,88.500947 Q47.660824,82.094332 45.278878,78.97316 Q42.896931,75.851989 37.804493,75.851989 Q34.847594,75.851989 34.847594,75.851989 C34.847594,75.851989 34.847594,101.971266 34.847594,101.971266 C34.847594,101.971266 36.654588,101.971266 36.654588,101.971266 C36.654588,101.971266 36.654588,101.971266 36.654588,101.971266 ZM79.841745,129.322585C79.841745,129.322585 79.841745,124.640828 79.841745,124.640828 C79.841745,124.640828 83.620005,124.640828 83.620005,124.640828 Q84.769911,124.640828 85.63234,124.065875 Q86.494769,123.490922 86.987585,122.423153 Q87.480402,121.355384 87.480402,119.876934 Q87.480402,80.04093 87.480402,80.04093 Q87.480402,78.316072 86.905449,77.330439 Q86.330496,76.344806 85.344863,75.851989 Q84.35923,75.359172 83.045053,75.359172 Q79.841745,75.359172 79.841745,75.359172 C79.841745,75.359172 79.841745,70.677415 79.841745,70.677415 C79.841745,70.677415 107.768016,70.677415 107.768016,70.677415 Q117.131531,70.677415 123.86669,73.757519 Q130.60185,76.837622 134.17477,82.997829 Q137.74769,89.158036 137.74769,98.52155 Q137.74769,107.474384 134.339042,114.455952 Q130.930394,121.43752 124.277371,125.380052 Q117.624347,129.322585 107.768016,129.322585 Q79.841745,129.322585 79.841745,129.322585 C79.841745,129.322585 79.841745,129.322585 79.841745,129.322585 ZM105.79675,123.901603Q111.135596,123.901603 114.667448,120.780431 Q118.1993,117.65926 120.047362,111.950801 Q121.895424,106.242343 121.895424,98.52155 Q121.895424,90.800758 120.08843,85.831524 Q118.281436,80.862291 114.708516,78.439276 Q111.135596,76.016261 105.878886,76.016261 Q102.264898,76.016261 102.264898,76.016261 C102.264898,76.016261 102.264898,123.901603 102.264898,123.901603 C102.264898,123.901603 105.79675,123.901603 105.79675,123.901603 C105.79675,123.901603 105.79675,123.901603 105.79675,123.901603 ZM156.942894,129.322585C156.942894,129.322585 156.942894,124.640828 156.942894,124.640828 C156.942894,124.640828 159.324841,124.640828 159.324841,124.640828 Q160.967563,124.640828 162.117468,124.189079 Q163.267374,123.737331 163.924462,122.669561 Q164.581551,121.601792 164.581551,119.876934 Q164.581551,80.123066 164.581551,80.123066 Q164.581551,78.398208 163.96553,77.371507 Q163.34951,76.344806 162.404945,75.851989 Q161.46038,75.359172 160.39261,75.359172 Q156.942894,75.359172 156.942894,75.359172 C156.942894,75.359172 156.942894,70.677415 156.942894,70.677415 C156.942894,70.677415 182.569355,70.677415 182.569355,70.677415 C182.569355,70.677415 194.889769,107.310112 194.889769,107.310112 C194.889769,107.310112 206.388822,70.677415 206.388822,70.677415 C206.388822,70.677415 231.686738,70.677415 231.686738,70.677415 C231.686738,70.677415 231.686738,75.359172 231.686738,75.359172 C231.686738,75.359172 227.990614,75.359172 227.990614,75.359172 Q227.004981,75.359172 226.142552,75.810921 Q225.280123,76.262669 224.70517,77.207235 Q224.130218,78.1518 224.130218,79.712385 Q224.130218,120.369751 224.130218,120.369751 Q224.130218,121.8482 224.664102,122.792765 Q225.197987,123.737331 226.224688,124.189079 Q227.251389,124.640828 228.647703,124.640828 Q231.686738,124.640828 231.686738,124.640828 C231.686738,124.640828 231.686738,129.322585 231.686738,129.322585 C231.686738,129.322585 203.596195,129.322585 203.596195,129.322585 C203.596195,129.322585 203.596195,124.640828 203.596195,124.640828 C203.596195,124.640828 204.663964,124.640828 204.663964,124.640828 Q206.388822,124.640828 207.456591,124.148011 Q208.52436,123.655194 209.017177,122.546357 Q209.509993,121.43752 209.509993,119.54839 Q209.509993,79.630249 209.509993,79.630249 C209.509993,79.630249 193.904136,129.322585 193.904136,129.322585 C193.904136,129.322585 187.743929,129.322585 187.743929,129.322585 C187.743929,129.322585 171.152438,79.548113 171.152438,79.548113 C171.152438,79.548113 171.152438,119.466254 171.152438,119.466254 Q171.152438,121.683928 171.891663,122.792765 Q172.630888,123.901603 173.986134,124.271215 Q175.341379,124.640828 177.312645,124.640828 Q177.969734,124.640828 177.969734,124.640828 C177.969734,124.640828 177.969734,129.322585 177.969734,129.322585 C177.969734,129.322585 156.942894,129.322585 156.942894,129.322585 C156.942894,129.322585 156.942894,129.322585 156.942894,129.322585 ZM246.906556,129.322585C246.906556,129.322585 246.906556,124.640828 246.906556,124.640828 C246.906556,124.640828 250.520544,124.640828 250.520544,124.640828 Q251.834721,124.640828 252.69715,124.106943 Q253.559579,123.573058 254.052396,122.628493 Q254.545212,121.683928 254.545212,120.287615 Q254.545212,80.123066 254.545212,80.123066 Q254.545212,77.987527 253.97026,77.001894 Q253.395307,76.016261 252.450742,75.687717 Q251.506177,75.359172 250.356272,75.359172 Q246.906556,75.359172 246.906556,75.359172 C246.906556,75.359172 246.906556,70.677415 246.906556,70.677415 C246.906556,70.677415 294.216945,70.677415 294.216945,70.677415 C294.216945,70.677415 294.545489,86.119 294.545489,86.119 C294.545489,86.119 288.22101,86.119 288.22101,86.119 C288.22101,86.119 287.81033,82.094332 287.81033,82.094332 Q287.646057,79.958794 287.030037,78.644616 Q286.414016,77.330439 285.223043,76.67335 Q284.032069,76.016261 281.978667,76.016261 Q269.329709,76.016261 269.329709,76.016261 C269.329709,76.016261 269.329709,96.057468 269.329709,96.057468 C269.329709,96.057468 288.795963,96.057468 288.795963,96.057468 C288.795963,96.057468 288.795963,101.314177 288.795963,101.314177 C288.795963,101.314177 269.329709,101.314177 269.329709,101.314177 C269.329709,101.314177 269.329709,123.983739 269.329709,123.983739 C269.329709,123.983739 284.278478,123.983739 284.278478,123.983739 Q286.249744,123.983739 287.481785,123.203446 Q288.713827,122.423153 289.453051,121.067908 Q290.192276,119.712662 290.438684,117.905668 Q291.013637,113.881 291.013637,113.881 C291.013637,113.881 297.338116,113.881 297.338116,113.881 C297.338116,113.881 296.763164,129.322585 296.763164,129.322585 C296.763164,129.322585 246.906556,129.322585 246.906556,129.322585 C246.906556,129.322585 246.906556,129.322585 246.906556,129.322585 Z" fill="#0e0e0e"/>
	</g>
	<g>
		<path d="M311.13469,129.322585C311.13469,129.322585 311.13469,124.640828 311.13469,124.640828 C311.13469,124.640828 313.845181,124.640828 313.845181,124.640828 Q315.077223,124.640828 316.18606,124.312283 Q317.294897,123.983739 318.034122,122.957038 Q318.773347,121.930337 318.773347,119.876934 Q318.773347,80.205202 318.773347,80.205202 Q318.773347,78.069663 317.951986,77.08403 Q317.130625,76.098397 316.021788,75.728785 Q314.912951,75.359172 313.845181,75.359172 Q311.13469,75.359172 311.13469,75.359172 C311.13469,75.359172 311.13469,70.677415 311.13469,70.677415 C311.13469,70.677415 339.389506,70.677415 339.389506,70.677415 Q348.178068,70.677415 353.475846,72.566545 Q358.773624,74.455675 361.073434,77.946459 Q363.373245,81.437243 363.373245,86.283273 Q363.373245,90.882894 361.730523,93.921929 Q360.087801,96.960965 357.459446,98.685823 Q354.831091,100.41068 351.627784,101.314177 Q361.401979,117.577124 361.401979,117.577124 Q363.619653,121.273248 365.262375,122.957038 Q366.905097,124.640828 369.040635,124.640828 Q369.615588,124.640828 369.615588,124.640828 C369.615588,124.640828 369.615588,129.322585 369.615588,129.322585 C369.615588,129.322585 366.248008,129.322585 366.248008,129.322585 Q361.401979,129.322585 357.829059,128.747632 Q354.256139,128.172679 351.70992,126.571026 Q349.163701,124.969372 347.520979,121.930337 Q338.486009,104.024668 338.486009,104.024668 C338.486009,104.024668 333.63998,104.024668 333.63998,104.024668 C333.63998,104.024668 333.63998,119.876934 333.63998,119.876934 Q333.63998,121.930337 334.214932,122.957038 Q334.789885,123.983739 335.857654,124.312283 Q336.925423,124.640828 338.157465,124.640828 Q339.964459,124.640828 339.964459,124.640828 C339.964459,124.640828 339.964459,129.322585 339.964459,129.322585 C339.964459,129.322585 311.13469,129.322585 311.13469,129.322585 C311.13469,129.322585 311.13469,129.322585 311.13469,129.322585 ZM337.746784,98.932231Q343.003494,98.932231 345.303305,95.975332 Q347.603115,93.018432 347.603115,87.104634 Q347.603115,83.079965 346.494278,80.615882 Q345.385441,78.1518 343.167766,77.001894 Q340.950092,75.851989 337.582512,75.851989 Q333.63998,75.851989 333.63998,75.851989 C333.63998,75.851989 333.63998,98.932231 333.63998,98.932231 C333.63998,98.932231 337.746784,98.932231 337.746784,98.932231 C337.746784,98.932231 337.746784,98.932231 337.746784,98.932231 ZM392.285149,130.143946Q386.124942,130.143946 382.141342,129.076176 Q378.157741,128.008407 375.898999,126.242481 Q373.640256,124.476555 372.777827,122.464221 Q371.915398,120.451887 371.915398,118.727029 Q371.915398,115.359449 373.311712,113.552455 Q374.708025,111.745461 376.966768,110.965168 Q379.22551,110.184875 381.853865,110.184875 Q381.853865,115.359449 383.578723,118.603825 Q385.303581,121.8482 388.05514,123.367718 Q390.806699,124.887236 393.845735,124.887236 Q398.445356,124.887236 400.950507,122.341017 Q403.455658,119.794798 403.455658,116.591491 Q403.455658,113.881 401.771868,111.950801 Q400.088078,110.020603 396.966906,108.336813 Q393.845735,106.653023 389.32825,104.846029 Q383.250179,102.381947 379.841531,99.58932 Q376.432883,96.796692 374.954434,93.470181 Q373.475984,90.143669 373.475984,86.365409 Q373.475984,81.272971 376.309679,77.576847 Q379.143374,73.880723 383.948336,71.868389 Q388.753297,69.856054 394.831368,69.856054 Q401.155847,69.856054 405.221584,71.375572 Q409.28732,72.89509 411.217518,75.1949 Q413.147716,77.494711 413.147716,79.958794 Q413.147716,82.915693 410.683634,84.928027 Q408.219551,86.940361 402.305752,86.940361 Q402.305752,84.147734 401.279051,81.478311 Q400.25235,78.808888 398.240016,77.001894 Q396.227681,75.1949 393.188646,75.1949 Q389.821066,75.1949 387.603392,76.87869 Q385.385717,78.56248 385.385717,82.094332 Q385.385717,83.983462 386.494555,85.831524 Q387.603392,87.679586 390.683495,89.650852 Q393.763599,91.622119 399.595261,94.004065 Q405.591196,96.303876 409.08198,99.055435 Q412.572764,101.806994 414.010145,105.010302 Q415.447527,108.213609 415.447527,112.238278 Q415.447527,117.577124 412.6549,121.601792 Q409.862273,125.626461 404.605563,127.885203 Q399.348853,130.143946 392.285149,130.143946 Q392.285149,130.143946 392.285149,130.143946 Z" fill="#ffffff"/>
	</g>
</g></g></svg>